<?xml version="1.0" encoding="UTF-8" standalone="no"?>
<svg width="159px" height="50px" viewBox="0 0 159 50" version="1.1" xmlns="http://www.w3.org/2000/svg" xmlns:xlink="http://www.w3.org/1999/xlink">
    <!-- Generator: Sketch 3.6.1 (26313) - http://www.bohemiancoding.com/sketch -->
    <title>Group</title>
    <desc>Created with Sketch.</desc>
    <defs></defs>
    <g id="Page-1" stroke="none" stroke-width="1" fill="none" fill-rule="evenodd">
        <g id="Artboard-3" transform="translate(-558.000000, -235.000000)">
            <g id="Group" transform="translate(-1.000000, -1.000000)">
                <g id="app_store@2x" transform="translate(560.000000, 237.000000)">
                    <g id="Group" transform="translate(0.030078, 0.162421)">
                        <path d="M5.852175,47.3458106 C2.83325921,47.3458106 0.375975245,44.8399747 0.375975245,41.7724453 L0.375975245,5.80875437 C0.375975245,2.74004743 2.83325921,0.243631959 5.852175,0.243631959 L151.14459,0.243631959 C154.162348,0.243631959 156.706482,2.74004743 156.706482,5.80875437 L156.706482,41.7724453 C156.706482,44.8399747 154.162348,47.3458106 151.14459,47.3458106 L5.852175,47.3458106 Z" id="Shape" stroke="#FFFFFF"></path>
                        <text id="Coming-soon-to-the" font-family="Helvetica-Light, Helvetica" font-size="10.5573849" font-weight="300" fill="#FFFFFF">
                            <tspan x="49.8242394" y="15.3521881">Coming soon to the</tspan>
                        </text>
                        <path d="M31.2037797,23.5403695 C31.1701976,19.7451115 34.2597516,17.8987061 34.4010281,17.8127446 C32.6512844,15.2185921 29.9392396,14.8641482 28.9862025,14.8358869 C26.7084091,14.5921331 24.498938,16.2218685 23.3386182,16.2218685 C22.1551384,16.2218685 20.3683386,14.859438 18.4425783,14.8994748 C15.9644503,14.9383341 13.6461268,16.3973241 12.3746387,18.6629389 C9.75060215,23.2824851 11.7076285,30.0710866 14.2216546,33.8051118 C15.4792467,35.6338539 16.9487535,37.6757333 18.8721977,37.6039025 C20.7539538,37.5250064 21.4568621,36.3839561 23.7277075,36.3839561 C25.9777088,36.3839561 26.6377709,37.6039025 28.5994293,37.5579779 C30.6189878,37.5250064 31.8904759,35.7209929 33.1040639,33.8757651 C34.5573586,31.7797181 35.1409925,29.7154651 35.1641525,29.6094852 C35.1166744,29.5929995 31.2419938,28.0892624 31.2037797,23.5403695 L31.2037797,23.5403695 Z" id="Shape" fill="#FFFFFF"></path>
                        <path d="M27.4981677,12.3795083 C28.510263,11.0924413 29.2027492,9.34141777 29.0105206,7.56448808 C27.5456458,7.63043113 25.7136839,8.59484824 24.6587425,9.85365396 C23.7253915,10.9629103 22.8916288,12.7810544 23.1070175,14.4908634 C24.7525408,14.6156842 26.4420683,13.6465569 27.4981677,12.3795083 L27.4981677,12.3795083 Z" id="Shape" fill="#FFFFFF"></path>
                        <g transform="translate(49.132445, 21.520823)" id="Shape" fill="#FFFFFF">
                            <path d="M12.7835703,15.6142159 L10.268084,15.6142159 L8.89016025,11.1848559 L4.10065672,11.1848559 L2.78808464,15.6142159 L0.339057745,15.6142159 L5.08425504,0.534675616 L8.01511219,0.534675616 L12.7835703,15.6142159 L12.7835703,15.6142159 Z M8.47478934,9.32654166 L7.2286766,5.38895505 C7.09686556,4.986698 6.84985833,4.03941098 6.48543958,2.5482271 L6.44113335,2.5482271 C6.29603045,3.18957214 6.06231508,4.13685916 5.74109491,5.38895505 L4.51713529,9.32654166 L8.47478934,9.32654166 L8.47478934,9.32654166 Z"></path>
                            <path d="M24.9866138,10.0438056 C24.9866138,11.8930549 24.4981376,13.3547777 23.5211852,14.4278409 C22.6461372,15.3830598 21.5595269,15.8601026 20.262462,15.8601026 C18.8623851,15.8601026 17.8566337,15.3456669 17.2441,14.3167953 L17.1997938,14.3167953 L17.1997938,20.0447091 L14.8382717,20.0447091 L14.8382717,8.32033248 C14.8382717,7.15775295 14.808365,5.96457922 14.7507669,4.7408113 L16.8276215,4.7408113 L16.9594325,6.46428446 L17.0037387,6.46428446 C17.791282,5.16573072 18.9864425,4.51758696 20.5903281,4.51758696 C21.8441944,4.51758696 22.8909291,5.02409091 23.7283169,6.03823192 C24.5679199,7.05350605 24.9866138,8.38831959 24.9866138,10.0438056 L24.9866138,10.0438056 Z M22.5807855,10.1321889 C22.5807855,9.07385625 22.3481778,8.20135504 21.8807471,7.51468526 C21.3701177,6.7985544 20.6844788,6.44048897 19.824938,6.44048897 C19.242311,6.44048897 18.7128516,6.63991782 18.2398826,7.03310992 C17.7658059,7.42970138 17.4556623,7.94753651 17.3105594,8.58888155 C17.2374541,8.88802482 17.2009014,9.13277841 17.2009014,9.32540854 L17.2009014,11.1383981 C17.2009014,11.9293147 17.4379398,12.5967215 17.9120164,13.1417515 C18.3860931,13.6867815 19.0019497,13.9587299 19.7595863,13.9587299 C20.6490338,13.9587299 21.3413187,13.6074632 21.8364408,12.907196 C22.3326706,12.2057956 22.5807855,11.281171 22.5807855,10.1321889 L22.5807855,10.1321889 Z"></path>
                            <path d="M37.2118105,10.0438056 C37.2118105,11.8930549 36.7233343,13.3547777 35.7452743,14.4278409 C34.8713339,15.3830598 33.7847236,15.8601026 32.4876587,15.8601026 C31.0875818,15.8601026 30.0818303,15.3456669 29.4704044,14.3167953 L29.4260981,14.3167953 L29.4260981,20.0447091 L27.064576,20.0447091 L27.064576,8.32033248 C27.064576,7.15775295 27.0346693,5.96457922 26.9770712,4.7408113 L29.0539258,4.7408113 L29.1857368,6.46428446 L29.2300431,6.46428446 C30.0164786,5.16573072 31.2116392,4.51758696 32.8166324,4.51758696 C34.0693911,4.51758696 35.1161258,5.02409091 35.9557289,6.03823192 C36.792009,7.05350605 37.2118105,8.38831959 37.2118105,10.0438056 L37.2118105,10.0438056 Z M34.8059822,10.1321889 C34.8059822,9.07385625 34.5722668,8.20135504 34.1048361,7.51468526 C33.5942068,6.7985544 32.9107832,6.44048897 32.0501346,6.44048897 C31.4664,6.44048897 30.9380482,6.63991782 30.4639716,7.03310992 C29.9898949,7.42970138 29.6808589,7.94753651 29.535756,8.58888155 C29.4637584,8.88802482 29.4260981,9.13277841 29.4260981,9.32540854 L29.4260981,11.1383981 C29.4260981,11.9293147 29.6631365,12.5967215 30.1349978,13.1417515 C30.6090745,13.6856483 31.2249311,13.9587299 31.9847829,13.9587299 C32.8742305,13.9587299 33.5665154,13.6074632 34.0616375,12.907196 C34.5578673,12.2057956 34.8059822,11.281171 34.8059822,10.1321889 L34.8059822,10.1321889 Z"></path>
                            <path d="M50.8802826,11.3854179 C50.8802826,12.668108 50.4449739,13.7117101 49.5710335,14.5173573 C48.610696,15.3977903 47.2737555,15.8374403 45.5557814,15.8374403 C43.9696183,15.8374403 42.6980295,15.5246996 41.7354766,14.8980851 L42.2826586,12.8845336 C43.3194244,13.5258786 44.4569868,13.8476843 45.6964536,13.8476843 C46.5859012,13.8476843 47.2781861,13.6414567 47.7755235,13.2312678 C48.2706456,12.821079 48.5176529,12.2703834 48.5176529,11.5837136 C48.5176529,10.9718296 48.3138442,10.4562608 47.9051192,10.03814 C47.4986096,9.62001934 46.8196166,9.23135971 45.8714633,8.87216116 C43.2906253,7.88748123 42.001314,6.44502145 42.001314,4.54818116 C42.001314,3.30854958 42.4532376,2.29214233 43.3581923,1.50122565 C44.2598241,0.709175857 45.4627383,0.313717518 46.9669348,0.313717518 C48.3083059,0.313717518 49.4226076,0.552805511 50.3120552,1.02984838 L49.7216747,2.99920824 C48.8909329,2.53689592 47.9516408,2.30573975 46.9004755,2.30573975 C46.0697336,2.30573975 45.4206474,2.51536666 44.9554319,2.93235425 C44.5622141,3.30515022 44.3650514,3.75953072 44.3650514,4.29776198 C44.3650514,4.89378229 44.5899055,5.38668881 45.0418291,5.77421532 C45.4350469,6.13228075 46.1494849,6.51980726 47.1862507,6.93792797 C48.4545165,7.46029558 49.386055,8.07104642 49.9852968,8.77131362 C50.5823232,9.46931459 50.8802826,10.3429489 50.8802826,11.3854179 L50.8802826,11.3854179 Z"></path>
                            <path d="M58.6881481,6.55380082 L56.0851571,6.55380082 L56.0851571,11.8329997 C56.0851571,13.175745 56.5437265,13.8465512 57.4630808,13.8465512 C57.8850977,13.8465512 58.2351169,13.8091582 58.5120308,13.7343724 L58.5773825,15.5688912 C58.1121671,15.7467908 57.4996335,15.8363072 56.7408893,15.8363072 C55.8082431,15.8363072 55.0794056,15.5450957 54.5532691,14.9638059 C54.029348,14.3813831 53.7657259,13.404635 53.7657259,12.0324285 L53.7657259,6.55153458 L52.2150078,6.55153458 L52.2150078,4.73854506 L53.7657259,4.73854506 L53.7657259,2.74765595 L56.0851571,2.03152509 L56.0851571,4.73854506 L58.6881481,4.73854506 L58.6881481,6.55380082 L58.6881481,6.55380082 Z"></path>
                            <path d="M70.4326222,10.0879973 C70.4326222,11.759347 69.9651914,13.1315534 69.0325453,14.2046166 C68.0544853,15.3094071 66.7563127,15.8601026 65.1380276,15.8601026 C63.5784483,15.8601026 62.3367662,15.3309363 61.410766,14.2726037 C60.4847658,13.2142711 60.0217657,11.8783244 60.0217657,10.2681631 C60.0217657,8.58321596 60.4980576,7.20307769 61.4539646,6.13001452 C62.4076562,5.05581823 63.6947522,4.51872008 65.3130372,4.51872008 C66.8726166,4.51872008 68.1275905,5.0478864 69.0746362,6.10735215 C69.9806986,7.13509058 70.4326222,8.46197228 70.4326222,10.0879973 L70.4326222,10.0879973 Z M67.9824876,10.1661824 C67.9824876,9.1633726 67.7731407,8.3033357 67.3489085,7.58607172 C66.8537864,6.71810299 66.1459944,6.28525174 65.2288554,6.28525174 C64.2795944,6.28525174 63.5585105,6.71923611 63.0633884,7.58607172 C62.6391562,8.30446882 62.4298093,9.17810314 62.4298093,10.2115072 C62.4298093,11.214317 62.6391562,12.0743539 63.0633884,12.7904848 C63.5740177,13.6584535 64.287348,14.0913047 65.2078099,14.0913047 C66.1094417,14.0913047 66.8172338,13.6493885 67.3278631,12.7678224 C67.7631718,12.036961 67.9824876,11.1678591 67.9824876,10.1661824 L67.9824876,10.1661824 Z"></path>
                            <path d="M78.1086766,6.86540839 C77.8749613,6.82121677 77.6257387,6.7985544 77.364332,6.7985544 C76.5335901,6.7985544 75.8911498,7.11922692 75.4392262,7.76170508 C75.0460084,8.32826431 74.8488457,9.04439517 74.8488457,9.90896454 L74.8488457,15.6142159 L72.4884313,15.6142159 L72.5105844,8.16509525 C72.5105844,6.91186625 72.4806777,5.77081597 72.4219719,4.74194442 L74.4788887,4.74194442 L74.5652858,6.82234989 L74.6306375,6.82234989 C74.8798601,6.10735215 75.2730779,5.53172798 75.8113986,5.10000985 C76.3375351,4.71135022 76.9057625,4.51758696 77.5182961,4.51758696 C77.7365043,4.51758696 77.933667,4.53345062 78.1086766,4.56177858 L78.1086766,6.86540839 L78.1086766,6.86540839 Z"></path>
                            <path d="M88.6701743,9.66307784 C88.6701743,10.0959291 88.642483,10.4607932 88.5837772,10.7588034 L81.4992109,10.7588034 C81.5269023,11.8329997 81.8691679,12.6545105 82.5271155,13.2210698 C83.1241419,13.7275737 83.896178,13.9813922 84.8443313,13.9813922 C85.8932813,13.9813922 86.8502959,13.8102914 87.7109445,13.4669565 L88.0809015,15.1439718 C87.07515,15.5926867 85.8877431,15.815911 84.5175729,15.815911 C82.8693811,15.815911 81.5756392,15.3196051 80.6341318,14.3281265 C79.6948397,13.3366479 79.224086,12.0052337 79.224086,10.3350171 C79.224086,8.69539469 79.66161,7.32998695 80.5377657,6.24106012 C81.4549047,5.0784806 82.6943715,4.49719083 84.2539508,4.49719083 C85.7858387,4.49719083 86.9455543,5.0784806 87.7330976,6.24106012 C88.3567078,7.16455166 88.6701743,8.30673506 88.6701743,9.66307784 L88.6701743,9.66307784 Z M86.4183102,9.03646334 C86.4338174,8.32033248 86.2798532,7.70164981 85.9597407,7.1792822 C85.5510157,6.50734296 84.9229749,6.1719399 84.0778335,6.1719399 C83.3057975,6.1719399 82.6777567,6.49941113 82.1981417,7.15661983 C81.8049239,7.67898744 81.5712085,8.30560194 81.4992109,9.03533022 L86.4183102,9.03533022 L86.4183102,9.03646334 Z"></path>
                        </g>
                    </g>
                </g>
            </g>
        </g>
    </g>
</svg>